<svg width="17" height="19" viewBox="0 0 17 19" fill="none" xmlns="http://www.w3.org/2000/svg">
    <path opacity="0.6" d="M14.5215 9.48047L8.40432 15.5977C7.88283 16.125 7.31447 16.4648 6.69924 16.6172C6.08987 16.7754 5.49221 16.7695 4.90627 16.5996C4.32619 16.4297 3.8135 16.1191 3.36819 15.668C2.91115 15.2109 2.59475 14.6924 2.41897 14.1123C2.24904 13.5322 2.24319 12.9404 2.40139 12.3369C2.55959 11.7275 2.89944 11.1562 3.42092 10.623L11.7969 2.25586C12.1074 1.94531 12.4531 1.72559 12.834 1.59668C13.2207 1.46777 13.6045 1.44141 13.9854 1.51758C14.3662 1.59375 14.709 1.78125 15.0137 2.08008C15.3125 2.38477 15.5 2.72754 15.5762 3.1084C15.6524 3.48926 15.6231 3.87305 15.4883 4.25977C15.3594 4.64062 15.1397 4.98926 14.8291 5.30566L6.64651 13.4971C6.45315 13.6963 6.251 13.7842 6.04006 13.7607C5.82912 13.7314 5.65334 13.6494 5.51272 13.5146C5.38381 13.3799 5.30471 13.21 5.27541 13.0049C5.25197 12.7939 5.33694 12.5889 5.53029 12.3896L11.252 6.66797C11.3809 6.53906 11.4483 6.38672 11.4541 6.21094C11.46 6.0293 11.4014 5.87109 11.2783 5.73633C11.1436 5.60742 10.9883 5.5459 10.8125 5.55176C10.6367 5.55762 10.4785 5.63086 10.3379 5.77148L4.59865 11.502C4.31154 11.8008 4.12111 12.1318 4.02736 12.4951C3.93361 12.8584 3.93069 13.2158 4.01858 13.5674C4.11233 13.9189 4.28518 14.2266 4.53713 14.4902C4.81838 14.7656 5.13479 14.9473 5.48635 15.0352C5.83791 15.1289 6.1924 15.123 6.54983 15.0176C6.90725 14.918 7.22951 14.7217 7.51662 14.4287L15.752 6.19336C16.2793 5.67188 16.628 5.10938 16.7979 4.50586C16.9678 3.89648 16.9737 3.30176 16.8155 2.72168C16.6572 2.13574 16.3496 1.61133 15.8926 1.14844C15.4356 0.703125 14.9141 0.401367 14.3281 0.243164C13.7481 0.0791016 13.1533 0.0791016 12.544 0.243164C11.9346 0.407227 11.3662 0.75293 10.8389 1.28027L2.41897 9.7002C1.89748 10.2217 1.51369 10.7871 1.2676 11.3965C1.02151 12.0059 0.901388 12.624 0.907248 13.251C0.918967 13.8779 1.04787 14.4844 1.29397 15.0703C1.54592 15.6562 1.90627 16.1836 2.37502 16.6523C2.84963 17.1211 3.37697 17.4785 3.95705 17.7246C4.54299 17.9766 5.14944 18.1055 5.77639 18.1113C6.40334 18.1172 7.02151 17.9971 7.63088 17.751C8.24026 17.5049 8.80276 17.124 9.31838 16.6084L15.4883 10.4385C15.6172 10.3096 15.6817 10.1455 15.6817 9.94629C15.6817 9.74707 15.6143 9.58301 15.4795 9.4541C15.3506 9.31348 15.1924 9.24902 15.0049 9.26074C14.8233 9.27246 14.6621 9.3457 14.5215 9.48047Z" fill="#38393B"/>
</svg>
