<svg width="19" height="19" viewBox="0 0 19 19" fill="none" xmlns="http://www.w3.org/2000/svg">
    <path d="M0.685613 17.8926C0.840561 18.0475 1.02285 18.1523 1.23249 18.207C1.44212 18.2617 1.65176 18.2617 1.86139 18.207C2.08014 18.1523 2.26699 18.0475 2.42194 17.8926L9.42194 10.8789L16.4356 17.8926C16.5906 18.0475 16.7729 18.1523 16.9825 18.207C17.1921 18.2617 17.4018 18.2617 17.6114 18.207C17.821 18.1523 18.0033 18.0475 18.1583 17.8926C18.3223 17.7376 18.4272 17.5553 18.4727 17.3457C18.5274 17.127 18.5274 16.9128 18.4727 16.7031C18.4272 16.4935 18.3223 16.3112 18.1583 16.1562L11.1583 9.14258L18.1583 2.14258C18.3223 1.98763 18.4272 1.80534 18.4727 1.5957C18.5274 1.38607 18.5274 1.17643 18.4727 0.966797C18.4272 0.748047 18.3223 0.561198 18.1583 0.40625C18.0033 0.251302 17.821 0.146484 17.6114 0.0917969C17.4018 0.0371094 17.1921 0.0371094 16.9825 0.0917969C16.7729 0.146484 16.5906 0.251302 16.4356 0.40625L9.42194 7.41992L2.42194 0.40625C2.26699 0.251302 2.08014 0.146484 1.86139 0.0917969C1.65176 0.0371094 1.44212 0.0371094 1.23249 0.0917969C1.02285 0.146484 0.840561 0.251302 0.685613 0.40625C0.521551 0.561198 0.412176 0.748047 0.357488 0.966797C0.311916 1.17643 0.316473 1.38607 0.37116 1.5957C0.425848 1.80534 0.530666 1.98763 0.685613 2.14258L7.69929 9.14258L0.685613 16.1562C0.530666 16.3112 0.425848 16.4935 0.37116 16.7031C0.316473 16.9128 0.311916 17.127 0.357488 17.3457C0.412176 17.5553 0.521551 17.7376 0.685613 17.8926Z" fill="#020223"/>
</svg>
