<svg width="152" height="9" viewBox="0 0 152 9" fill="none" xmlns="http://www.w3.org/2000/svg">
    <path fill-rule="evenodd" clip-rule="evenodd" d="M16.0378 0.103571C15.1657 0.103571 14.3131 0.36219 13.588 0.846724C12.8628 1.33126 12.2976 2.01995 11.9639 2.8257C11.6301 3.63145 11.5428 4.51807 11.7129 5.37345C11.8831 6.22883 12.3031 7.01455 12.9198 7.63124C13.5365 8.24794 14.3222 8.66791 15.1776 8.83806C16.0329 9.0082 16.9196 8.92088 17.7253 8.58713C18.5311 8.25337 19.2197 7.68818 19.7043 6.96303C20.1888 6.23787 20.4474 5.38532 20.4474 4.51318C20.4476 3.93406 20.3336 3.36059 20.1121 2.82553C19.8905 2.29047 19.5657 1.8043 19.1562 1.39481C18.7467 0.985308 18.2605 0.660504 17.7255 0.43895C17.1904 0.217395 16.6169 0.103432 16.0378 0.103571ZM42.5959 0.0813697H29.5172C28.3597 0.0992945 27.2556 0.571706 26.4434 1.39662C25.6311 2.22153 25.1759 3.33277 25.1759 4.49045C25.1759 5.64813 25.6311 6.75937 26.4434 7.58428C27.2556 8.40919 28.3597 8.88161 29.5172 8.89953H42.5959C43.1807 8.90859 43.7614 8.80123 44.3042 8.58372C44.8471 8.36621 45.3413 8.04288 45.758 7.63256C46.1747 7.22224 46.5057 6.73313 46.7316 6.19369C46.9575 5.65426 47.0738 5.07527 47.0738 4.49045C47.0738 3.90563 46.9575 3.32664 46.7316 2.78721C46.5057 2.24777 46.1747 1.75866 45.758 1.34834C45.3413 0.93802 44.8471 0.614693 44.3042 0.397181C43.7614 0.179668 43.1807 0.0723146 42.5959 0.0813697ZM4.41067 0.103571C3.53848 0.103362 2.68583 0.361803 1.96053 0.84621C1.23524 1.33062 0.669882 2.01923 0.335967 2.82496C0.00205228 3.63069 -0.0854239 4.51735 0.0846024 5.3728C0.254629 6.22825 0.67452 7.01407 1.29117 7.63087C1.90783 8.24767 2.69354 8.66775 3.54895 8.83798C4.40436 9.00821 5.29104 8.92095 6.09685 8.58723C6.90266 8.25351 7.59141 7.68832 8.07599 6.96314C8.56057 6.23796 8.81922 5.38536 8.81922 4.51318C8.81936 3.93415 8.70543 3.36077 8.48394 2.82578C8.26245 2.29078 7.93775 1.80466 7.52836 1.39518C7.11897 0.985695 6.63293 0.660869 6.09799 0.439253C5.56305 0.217636 4.9897 0.103571 4.41067 0.103571Z" fill="#113EF5"/>
    <path d="M62.5422 8.87103H66.2699V0.12793H62.5422L56.8597 5.06508V0.12793H53.132V8.87103H56.8597L62.5422 3.93493V8.87103Z" fill="#030126"/>
    <path d="M80.6434 8.87103V0.12793H76.7867V3.03313H71.4637V0.12793H67.608V8.87103H71.4637V5.81042H76.7867V8.87103H80.6434Z" fill="#030126"/>
    <path d="M95.0195 8.87103V0.12793H91.1618V3.03313H85.8387V0.12793H81.9821V8.87103H85.8387V5.81042H91.1618V8.87103H95.0195Z" fill="#030126"/>
    <path d="M96.229 4.60308C96.229 7.73875 98.5432 9 103.068 9H103.479C108.004 9 110.319 7.73875 110.319 4.60308V4.39692C110.319 1.26125 108.006 0 103.479 0H103.068C98.5432 0 96.229 1.26125 96.229 4.39692V4.60308ZM100.215 4.55127V4.44555C100.215 3.09656 101.231 2.56901 103.03 2.56901H103.518C105.316 2.56901 106.335 3.09762 106.335 4.44555V4.55127C106.335 5.90133 105.319 6.42887 103.518 6.42887H103.03C101.231 6.42887 100.215 5.90133 100.215 4.55127Z" fill="#030126"/>
    <path d="M111.079 0.12793V2.95701H115.661V8.87103H119.517V2.95701H124.094V0.12793H111.079Z" fill="#030126"/>
    <path d="M146.737 8.87103H151.712L147.272 4.42336L151.578 0.130045H146.849L144.629 2.59756L142.409 0.12793H137.433L141.715 4.60309L137.305 8.87103H142.035L144.388 6.37814L146.737 8.87103Z" fill="#030126"/>
    <path d="M125.229 8.88689H136.571V6.52192H129.096V5.433H135.462V3.58289H129.096V2.48551H136.572V0.140625H125.229V8.88689Z" fill="#030126"/>
</svg>
