<svg width="69" height="68" viewBox="0 0 69 68" fill="none" xmlns="http://www.w3.org/2000/svg">
    <path d="M34.5 67.8945C39.1263 67.8945 43.4759 67.0091 47.5488 65.2383C51.6439 63.4674 55.252 61.0215 58.373 57.9004C61.4941 54.7793 63.9401 51.1823 65.7109 47.1094C67.4818 43.0143 68.3672 38.6536 68.3672 34.0273C68.3672 29.401 67.4818 25.0514 65.7109 20.9785C63.9401 16.8835 61.4941 13.2754 58.373 10.1543C55.252 7.0332 51.6439 4.58724 47.5488 2.81641C43.4538 1.04557 39.0931 0.160156 34.4668 0.160156C29.8405 0.160156 25.4798 1.04557 21.3848 2.81641C17.3118 4.58724 13.7148 7.0332 10.5938 10.1543C7.49479 13.2754 5.0599 16.8835 3.28906 20.9785C1.51823 25.0514 0.632812 29.401 0.632812 34.0273C0.632812 38.6536 1.51823 43.0143 3.28906 47.1094C5.0599 51.1823 7.50586 54.7793 10.627 57.9004C13.748 61.0215 17.3451 63.4674 21.418 65.2383C25.513 67.0091 29.8737 67.8945 34.5 67.8945ZM34.5 62.25C30.582 62.25 26.9186 61.5195 23.5098 60.0586C20.1009 58.5977 17.1016 56.5833 14.5117 54.0156C11.944 51.4258 9.92969 48.4264 8.46875 45.0176C7.02995 41.6087 6.31055 37.9453 6.31055 34.0273C6.31055 30.1094 7.02995 26.446 8.46875 23.0371C9.92969 19.6283 11.944 16.6289 14.5117 14.0391C17.0794 11.4492 20.0677 9.4349 23.4766 7.99609C26.8854 6.53516 30.5488 5.80469 34.4668 5.80469C38.3848 5.80469 42.0482 6.53516 45.457 7.99609C48.8659 9.4349 51.8652 11.4492 54.4551 14.0391C57.0449 16.6289 59.0703 19.6283 60.5312 23.0371C61.9922 26.446 62.7227 30.1094 62.7227 34.0273C62.7227 37.9453 61.9922 41.6087 60.5312 45.0176C59.0924 48.4264 57.0781 51.4258 54.4883 54.0156C51.9206 56.5833 48.9212 58.5977 45.4902 60.0586C42.0814 61.5195 38.418 62.25 34.5 62.25ZM30.8477 49.7656C31.9766 49.7656 32.873 49.2565 33.5371 48.2383L48.7109 24.332C48.9102 24.0221 49.0872 23.6901 49.2422 23.3359C49.4193 22.9596 49.5078 22.5833 49.5078 22.207C49.5078 21.4766 49.2311 20.89 48.6777 20.4473C48.1243 20.0046 47.5046 19.7832 46.8184 19.7832C45.8887 19.7832 45.1139 20.2812 44.4941 21.2773L30.7148 43.3906L24.1738 34.9238C23.7754 34.3926 23.377 34.0384 22.9785 33.8613C22.6022 33.6621 22.1816 33.5625 21.7168 33.5625C21.0085 33.5625 20.3997 33.8281 19.8906 34.3594C19.4036 34.8685 19.1602 35.4883 19.1602 36.2188C19.1602 36.9049 19.4147 37.5911 19.9238 38.2773L28.0254 48.2383C28.446 48.7695 28.8776 49.1569 29.3203 49.4004C29.7852 49.6439 30.2943 49.7656 30.8477 49.7656Z" fill="#113EF5"/>
</svg>
