<svg width="40" height="41" viewBox="0 0 40 41" fill="none" xmlns="http://www.w3.org/2000/svg">
    <path d="M20 40.8203C22.7214 40.8203 25.2799 40.2995 27.6758 39.2578C30.0846 38.2161 32.207 36.7773 34.043 34.9414C35.8789 33.1055 37.3177 30.9896 38.3594 28.5938C39.401 26.1849 39.9219 23.6198 39.9219 20.8984C39.9219 18.1771 39.401 15.6185 38.3594 13.2227C37.3177 10.8138 35.8789 8.69141 34.043 6.85547C32.207 5.01953 30.0846 3.58073 27.6758 2.53906C25.2669 1.4974 22.7018 0.976562 19.9805 0.976562C17.2591 0.976562 14.694 1.4974 12.2852 2.53906C9.88932 3.58073 7.77344 5.01953 5.9375 6.85547C4.11458 8.69141 2.68229 10.8138 1.64062 13.2227C0.598958 15.6185 0.078125 18.1771 0.078125 20.8984C0.078125 23.6198 0.598958 26.1849 1.64062 28.5938C2.68229 30.9896 4.12109 33.1055 5.95703 34.9414C7.79297 36.7773 9.90885 38.2161 12.3047 39.2578C14.7135 40.2995 17.2786 40.8203 20 40.8203ZM16.2891 28.7695C15.8203 29.056 15.3646 29.1081 14.9219 28.9258C14.4922 28.7305 14.2773 28.3919 14.2773 27.9102V13.9062C14.2773 13.4245 14.5052 13.099 14.9609 12.9297C15.4167 12.7604 15.8594 12.7995 16.2891 13.0469L27.7734 19.8438C28.1771 20.0911 28.3789 20.4492 28.3789 20.918C28.3919 21.3867 28.1901 21.7513 27.7734 22.0117L16.2891 28.7695Z" fill="#606075"/>
</svg>
