<svg width="40" height="41" viewBox="0 0 40 41" fill="none" xmlns="http://www.w3.org/2000/svg">
    <path d="M20 40.8203C22.7214 40.8203 25.2799 40.2995 27.6758 39.2578C30.0846 38.2161 32.207 36.7773 34.043 34.9414C35.8789 33.1055 37.3177 30.9896 38.3594 28.5938C39.401 26.1849 39.9219 23.6198 39.9219 20.8984C39.9219 18.1771 39.401 15.6185 38.3594 13.2227C37.3177 10.8138 35.8789 8.69141 34.043 6.85547C32.207 5.01953 30.0846 3.58073 27.6758 2.53906C25.2669 1.4974 22.7018 0.976562 19.9805 0.976562C17.2591 0.976562 14.694 1.4974 12.2852 2.53906C9.88932 3.58073 7.77344 5.01953 5.9375 6.85547C4.11458 8.69141 2.68229 10.8138 1.64062 13.2227C0.598958 15.6185 0.078125 18.1771 0.078125 20.8984C0.078125 23.6198 0.598958 26.1849 1.64062 28.5938C2.68229 30.9896 4.12109 33.1055 5.95703 34.9414C7.79297 36.7773 9.90885 38.2161 12.3047 39.2578C14.7135 40.2995 17.2786 40.8203 20 40.8203ZM13.4375 29.1016C12.9948 29.1016 12.6172 28.9453 12.3047 28.6328C11.9922 28.3073 11.8359 27.9232 11.8359 27.4805C11.8359 27.0378 11.9922 26.6602 12.3047 26.3477L17.7344 20.918L12.3047 15.5078C11.9922 15.1823 11.8359 14.8047 11.8359 14.375C11.8359 13.9193 11.9922 13.5417 12.3047 13.2422C12.6172 12.9297 12.9948 12.7734 13.4375 12.7734C13.8672 12.7734 14.2448 12.9232 14.5703 13.2227L20.0195 18.6523L25.5078 13.2031C25.8203 12.8906 26.1914 12.7344 26.6211 12.7344C27.0638 12.7344 27.4414 12.8906 27.7539 13.2031C28.0664 13.5156 28.2227 13.8932 28.2227 14.3359C28.2227 14.7786 28.0664 15.1628 27.7539 15.4883L22.3047 20.918L27.7344 26.3281C28.0469 26.6146 28.2031 26.9987 28.2031 27.4805C28.2031 27.9232 28.0469 28.3073 27.7344 28.6328C27.4219 28.9453 27.0378 29.1016 26.582 29.1016C26.1133 29.1016 25.7292 28.9453 25.4297 28.6328L20.0195 23.2031L14.6289 28.6328C14.3034 28.9453 13.9062 29.1016 13.4375 29.1016Z" fill="#606075"/>
</svg>
